<?xml version="1.0" encoding="utf-8"?>
<!-- Generator: Adobe Illustrator 26.4.1, SVG Export Plug-In . SVG Version: 6.00 Build 0)  -->
<svg version="1.1" id="Camada_1" xmlns="http://www.w3.org/2000/svg" xmlns:xlink="http://www.w3.org/1999/xlink" x="0px" y="0px"
	 viewBox="0 0 497.3 376.8" style="enable-background:new 0 0 497.3 376.8;" xml:space="preserve">
<style type="text/css">
	.st0{fill:#E2B3B0;}
	.st1{fill:#E99B98;}
	.st2{fill:#EDBCB9;}
	.st3{fill:#4A5058;}
	.st4{fill:#D18B89;}
	.st5{fill:#E8B8B5;}
	.st6{fill:#FBB03B;}
	.st7{fill:#FCEE21;}
	.st8{fill:none;stroke:#F7931E;stroke-miterlimit:10;}
	.st9{fill:#C1272D;}
	.st10{fill:#0071BC;stroke:#000000;stroke-miterlimit:10;}
</style>
<g>
	<g>
		<rect x="275.7" y="265.3" class="st0" width="55.5" height="67.3"/>
		<path class="st1" d="M39.6,154.3c-8,0-15.4-3.9-20.4-11.1c-6.7-9.4-7.9-22.2-3.1-31.9c4.5-9.1,13.7-14.4,25.7-14.8
			c0.9,0,1.9,0,2.8,0C27.3,84.7,18.2,88.8,9,94.9c-2.7,1.8-6.2,1.1-8-1.6c-1.8-2.7-1.1-6.2,1.6-8c12.7-8.5,27.7-13.8,51.5,3.8
			c4.6,3.4,8.3,7.8,11,12.7c6.8,3.6,12.8,9.1,17.9,16.4c7.6,10.7,10.5,21.6,10.6,22c0.8,3.1-1,6.2-4.1,7.1c-3.1,0.8-6.2-1-7.1-4.1
			l0,0c0-0.1-2.6-9.5-9.1-18.5c-1.1-1.6-2.3-3-3.5-4.4c0.1,3.5-0.4,7.1-1.3,10.6c-3.4,13-13.1,21.6-25.9,23.2
			C41.7,154.2,40.6,154.3,39.6,154.3z M43.5,108c-0.4,0-0.9,0-1.3,0c-7.7,0.3-13.2,3.2-15.7,8.4c-2.9,5.9-2,14.1,2.2,20.1
			c1.9,2.6,6,6.9,12.7,6.1c11.4-1.4,15.1-10.7,16.1-14.7c1.3-5.1,1.2-11.5-1.1-17.5C52.3,108.8,48.1,108,43.5,108z"/>
		<path class="st1" d="M337.1,124.3c0,0,33.9-8.7,44.1-3.1c10.2,5.5,15.4,15.7,11.8,44.1c-3.5,28.3-19.3,12.6-19.3,12.6L337.1,124.3
			z"/>
		<path class="st2" d="M163.5,314.1h110.2c59,0,106.9-47.9,106.9-106.9v0c0-59-47.9-106.9-106.9-106.9H163.5
			c-59,0-106.9,47.9-106.9,106.9v0C56.6,266.2,104.4,314.1,163.5,314.1z"/>
		<rect x="92.4" y="265.3" class="st2" width="55.5" height="67.3"/>
		<path class="st3" d="M147.9,332.6H92.4v11.5c0,5.1,4.2,9.3,9.3,9.3h36.9c5.1,0,9.3-4.2,9.3-9.3V332.6z"/>
		<rect x="197.3" y="265.3" class="st2" width="55.5" height="67.3"/>
		<path class="st3" d="M252.8,332.6h-55.5v11.5c0,5.1,4.2,9.3,9.3,9.3h36.9c5.1,0,9.3-4.2,9.3-9.3V332.6z"/>
		<path class="st3" d="M331.2,332.6h-55.5v11.5c0,5.1,4.2,9.3,9.3,9.3h36.9c5.1,0,9.3-4.2,9.3-9.3V332.6z"/>
		<ellipse class="st0" cx="91.8" cy="213" rx="13.6" ry="17.7"/>
		<ellipse class="st0" cx="130.6" cy="196.5" rx="8.8" ry="11.9"/>
		<ellipse class="st0" cx="125" cy="244.8" rx="11.2" ry="14.2"/>
		<path class="st3" d="M344,182.2L344,182.2c-3.4,0-6.1-2.7-6.1-6.1v-10c0-3.4,2.7-6.1,6.1-6.1l0,0c3.4,0,6.1,2.7,6.1,6.1v10
			C350.1,179.5,347.4,182.2,344,182.2z"/>
		<path class="st3" d="M240.1,182.2L240.1,182.2c-3.4,0-6.1-2.7-6.1-6.1v-10c0-3.4,2.7-6.1,6.1-6.1h0c3.4,0,6.1,2.7,6.1,6.1v10
			C246.2,179.5,243.5,182.2,240.1,182.2z"/>
		<path class="st1" d="M292.4,224.3c0.5,0,35.3-0.4,39.2-2.4c3.9-2,9.1-6.7,4.9-14.8c-4.2-8.1-26.1-33.1-32.2-36.1
			c-6-3-20.5-5.1-27.8,1.6s-26.9,29-28.7,34.4c-1.8,5.4-1.6,14.4,7.7,15.4C264.8,223.7,292.4,224.3,292.4,224.3z"/>
		<path class="st4" d="M278.8,209.3L278.8,209.3c-3.4,0-6.1-2.7-6.1-6.1v-5c0-3.4,2.7-6.1,6.1-6.1l0,0c3.4,0,6.1,2.7,6.1,6.1v5
			C284.9,206.5,282.2,209.3,278.8,209.3z"/>
		<path class="st4" d="M305.4,209.3L305.4,209.3c-3.4,0-6.1-2.7-6.1-6.1v-5c0-3.4,2.7-6.1,6.1-6.1h0c3.4,0,6.1,2.7,6.1,6.1v5
			C311.5,206.5,308.8,209.3,305.4,209.3z"/>
		<path class="st5" d="M203.6,169.2c0.3-0.3,22-21.2,23.4-24.8c1.3-3.6,1.7-9.6-5.7-12.2c-7.4-2.6-36.2-5.4-41.7-3.7
			c-5.6,1.7-15.9,9-16.6,17.6c-0.7,8.6,0.3,34.3,2.3,38.8s7.5,10,14.1,5.1C185.8,185.2,203.6,169.2,203.6,169.2z"/>
		<path class="st1" d="M210.8,160.2c0.3-0.3,22-21.2,23.4-24.8c1.3-3.6,1.7-9.6-5.7-12.2c-7.4-2.6-36.2-5.4-41.7-3.7
			c-5.6,1.7-15.9,9-16.6,17.6c-0.7,8.6,0.3,34.3,2.3,38.8s7.5,10,14.1,5.1C193,176.2,210.8,160.2,210.8,160.2z"/>
	</g>
	<g>
		<g>
			<path class="st6" d="M385.8,165.4l-7,79.4c-15,38.1-55.1,51.3-55.1,51.3s0-99.5,0-99.5L361,192l4.7-43.5l-56.7,18v61.2l-16.8,14
				l-16.8-14.5v-60.8l-56.7-18l4.7,43.5l37.4,4.5v99.5c0,0-61.8-13.1-76.8-51.3l-7-79.4h0c10.4-48.1,53.2-84.2,104.5-84.2
				S375.4,117.2,385.8,165.4L385.8,165.4z"/>
		</g>
	</g>
	<polygon class="st7" points="265.4,112.4 310.9,111 313.6,81.2 260.4,81.2 	"/>
	<path class="st8" d="M292.1,241.8c1.3-54.3,0.2-98.8-4.2-130"/>
	<polygon class="st9" points="313.6,81.2 324,0 246.9,0 260.4,81.2 	"/>
	<g>
		<path class="st10" d="M236.8,311.1c0,11.2-3,20.8-9.1,28.9c-6.2,8.3-14.7,13.6-25.5,15.9c2.1,4.3,5.2,8.2,9.4,11.8
			c0.4,0.3,0.6,0.6,0.6,0.8c0,1.7-5.2,2.5-15.5,2.5c-7.6,0-12.3-0.3-14.1-0.9c-1-0.3-1.6-1.1-1.8-2.3c-0.5-2.4-0.7-6.5-0.5-12.2
			c-10.3-2.6-18.5-8-24.5-16.3c-5.9-8-8.8-17.4-8.8-28.2c0-13.1,4.2-24.1,12.6-33c8.6-9.1,19.4-13.7,32.3-13.7
			c12.9,0,23.7,4.6,32.3,13.7C232.6,287.1,236.8,298.1,236.8,311.1z M212.9,311c0-6.5-1.9-11.9-5.6-16.2c-4-4.5-9.1-6.8-15.4-6.8
			c-6.6,0-11.7,2.2-15.6,6.7c-3.7,4.2-5.5,9.7-5.5,16.4c0,6.8,1.8,12.3,5.4,16.4c3.7,4.4,9,6.6,15.7,6.6c6.5,0,11.7-2.2,15.6-6.7
			C211.1,323,212.9,317.6,212.9,311z"/>
		<path class="st10" d="M310.6,297.9c0,3.1-0.1,7.8-0.4,14c-0.3,6.2-0.4,10.9-0.4,14c0,3,0.1,7.6,0.3,13.6
			c0.2,6.1,0.3,10.6,0.3,13.6c0,1.1-0.5,1.8-1.6,2.1c-1.6,0.4-5,0.6-10.2,0.6c-4.6,0-7.8-0.1-9.6-0.4c-0.8-0.1-1.3-0.6-1.5-1.5
			c-0.1-1.3-0.3-2.5-0.4-3.8c-0.2-1.9-0.5-2.9-0.9-2.9c0.6,0-1.5,1.4-6.4,4.3c-4.8,2.9-9.2,4.3-13.2,4.3c-11.1,0-17.7-5-19.8-15.1
			c-0.9-4.7-1.4-11.4-1.4-20.3c0-9.6,0.8-17.1,2.3-22.7c0.5-1.7,1.3-2.6,2.6-2.6c1.9,0,4.9,0,8.8,0.1c4,0,6.9,0.1,8.8,0.1
			c1.3,0,2,0.5,2,1.6c0,0.3,0,0.7-0.1,1.3c-0.9,5.7-1.3,11.5-1.3,17.4c0,7.3,0.2,12.3,0.7,15c0.8,4.6,3.5,6.9,8.3,6.9
			c1.8,0,3.9-0.8,6-2.5c2.2-1.6,3.3-3.3,3.4-5.1c0.1-1.6,0.1-12.1,0.1-31.6c0-1.4,0.1-2.2,0.3-2.5c0.3-0.4,1-0.6,2.3-0.6
			c2.1,0,5.2,0,9.3,0.1c4.1,0,7.2,0.1,9.3,0.1c1.3,0,2,0.3,2.2,0.9C310.6,296.7,310.6,297.2,310.6,297.9z"/>
		<path class="st10" d="M378.8,321c0,4.2-1.4,6.7-4.1,7.3c-0.5,0.1-4.8,0.5-13.1,1.4c-5,0.5-12.4,1.2-22.2,2
			c0.6,2.7,2.4,4.8,5.4,6.2c2.4,1.2,5.2,1.8,8.3,1.8c3.7,0,7.5-1,11.3-3c1.6-1,3.2-2,4.8-3c0.9,0.4,2.4,2.6,4.4,6.4
			c2.1,3.9,3.1,6.3,3.1,7.4c0,0.3-0.3,0.8-0.9,1.5c-5.1,5.5-13.1,8.3-23.9,8.3c-10,0-18.1-2.9-24.2-8.8c-6.3-5.9-9.5-13.8-9.5-23.8
			c0-9.7,2.8-17.6,8.4-23.8c5.8-6.4,13.5-9.6,23.1-9.6c8.1,0,14.9,2.9,20.6,8.8C376,305.9,378.8,312.9,378.8,321z M356.7,317.1
			c0-2.6-0.9-4.9-2.8-6.9c-1.9-2-4.1-3-6.6-3c-2.6,0-4.8,1.1-6.6,3.3c-1.6,2.1-2.4,4.5-2.4,7.3c0,1.1,0.6,1.7,1.8,1.7
			c3.1,0,7.9-0.5,14.5-1.5C356,317.9,356.7,317.6,356.7,317.1z"/>
		<path class="st10" d="M427.5,315.9c0,1.6-0.9,2.5-2.7,2.5c-0.8,0-2-0.1-3.5-0.2c-1.5-0.1-2.7-0.2-3.4-0.2c-3.5,0-5.9,0.5-7.1,1.6
			c-1.3,1.1-1.9,3.3-1.9,6.6c0,1.8,0,4.6,0.1,8.2c0.1,3.7,0.1,6.4,0.1,8.2c0,1.2,0.1,3,0.3,5.5c0.2,2.4,0.3,4.2,0.3,5.4
			c0,1-0.7,1.6-2.1,1.7c-2,0.2-5.1,0.3-9.3,0.3c-4,0-7.2-0.1-9.6-0.4c-1.4-0.2-2.1-0.9-2.1-2.1c0-3.4,0-8.4,0.1-15.1
			c0-6.7,0.1-11.7,0.1-15.1c0-9.9-0.9-18-2.7-24.4c-0.1-0.4-0.1-0.7-0.1-0.9c0-0.6,0.3-1.1,0.9-1.3c2.3-0.3,5.7-0.7,10.2-1.4
			c6.6-1.3,10.1-2,10.3-2c0.8,0,1.2,1.3,1.5,4c0.2,2.6,0.6,4,1.1,4c-0.6,0,1.1-1.1,5.2-3.3c4-2.2,7.9-3.3,11.7-3.3
			c2.4,0,3.5,0.5,3.5,1.5c0,1.2-0.1,2.9-0.4,5.2c-0.3,2.4-0.4,4.1-0.4,5.2c0,1.2,0,2.8,0.1,4.9C427.5,313.5,427.5,315.1,427.5,315.9
			z"/>
		<path class="st10" d="M496.8,310.3c0,8.2-0.3,13.1-0.8,14.9c-0.6,2.1-5.2,9.7-13.8,22.8c-1.3,2.1-4.8,6.8-10.4,14.3
			c-6.2,8.2-9.7,12.6-10.5,13.1c-1,0.6-7.5,0.9-19.4,0.9c-1.8,0-3-0.2-3.7-0.6c-0.5-1.7-1.2-3.8-2.1-6.1c-0.7-1.5-1.3-3-2-4.5
			c-1-2.2-1.5-3.6-1.5-4.4c0-0.8,0.4-1.2,1.1-1.2c11.7,0,17.5-2.7,17.5-8c0-0.5-2.9-4.6-8.6-12.5c-5.9-8.1-9.2-13.2-9.8-15.4
			c-0.3-1.2-0.5-5.6-0.5-13.1c0-1.5,0-3.8,0.1-6.8c0.1-3,0.1-5.3,0.1-6.8c0-1.1,0.7-1.6,2.1-1.6c2.1,0,5.4,0.1,9.7,0.2
			c4.4,0.1,7.6,0.2,9.7,0.2c0.9,0,1.3,0.7,1.3,2c0,1.2-0.1,3-0.2,5.3c-0.1,2.4-0.2,4.2-0.2,5.3c0,5.3,0.1,8.9,0.3,10.8
			c0.1,1.5,1.4,4.2,3.8,8.2c2.5,4.2,4.4,6.2,5.5,6.2c1,0,2.6-2.1,4.9-6.2c2.1-3.9,3.3-6.5,3.5-7.9c0.4-3.7,0.6-7.7,0.6-12
			c0-1.1-0.1-2.9-0.3-5.2c-0.2-2.3-0.3-4.1-0.3-5.2c0-0.8,0.4-1.2,1.3-1.2c2.1,0,5.3-0.1,9.6-0.3c4.3-0.2,7.5-0.3,9.6-0.3
			c1.1,0,1.8,0.5,2.2,1.6C496.5,298.8,496.8,303.2,496.8,310.3z"/>
	</g>
</g>
</svg>
